<svg width="24" height="24" viewBox="0 0 24 24" fill="none" xmlns="http://www.w3.org/2000/svg">
<g clip-path="url(#clip0_23_118)">
<path d="M24 17.9997C24 18.7069 23.719 19.3852 23.219 19.8853C22.7189 20.3854 22.0406 20.6663 21.3333 20.6663H16V3.33301H21.3333C22.0406 3.33301 22.7189 3.61396 23.219 4.11406C23.719 4.61415 24 5.29243 24 5.99967V17.9997Z" fill="#ED2939"/>
<path d="M2.66667 3.33301C1.95942 3.33301 1.28115 3.61396 0.781049 4.11406C0.280952 4.61415 0 5.29243 0 5.99967L0 17.9997C0 18.7069 0.280952 19.3852 0.781049 19.8853C1.28115 20.3854 1.95942 20.6663 2.66667 20.6663H8V3.33301H2.66667Z" fill="#002495"/>
<path d="M8 3.33301H16V20.6663H8V3.33301Z" fill="#EEEEEE"/>
</g>
<defs>
<clipPath id="clip0_23_118">
<rect width="24" height="24" fill="white"/>
</clipPath>
</defs>
</svg>
