<svg width="26" height="27" viewBox="0 0 26 27" fill="none" xmlns="http://www.w3.org/2000/svg">
<path d="M4.42857 5.05556H25L22.4286 16.6111H7M22.4286 20.1667H7.85714L3.57143 1.5H1" stroke="#111111" stroke-width="2" stroke-linecap="round" stroke-linejoin="round"/>
<path d="M20.7143 25.4999C21.6611 25.4999 22.4286 24.704 22.4286 23.7221C22.4286 22.7403 21.6611 21.9443 20.7143 21.9443C19.7675 21.9443 19 22.7403 19 23.7221C19 24.704 19.7675 25.4999 20.7143 25.4999Z" stroke="#111111" stroke-width="2" stroke-linecap="round" stroke-linejoin="round"/>
<path d="M9.57171 25.4999C10.5185 25.4999 11.286 24.704 11.286 23.7221C11.286 22.7403 10.5185 21.9443 9.57171 21.9443C8.62493 21.9443 7.85742 22.7403 7.85742 23.7221C7.85742 24.704 8.62493 25.4999 9.57171 25.4999Z" stroke="#111111" stroke-width="2" stroke-linecap="round" stroke-linejoin="round"/>
</svg>
